<svg xmlns="http://www.w3.org/2000/svg" width="64" height="38" viewBox="0 0 64 38" shape-rendering="crispEdges"><rect x="12" y="0" width="2" height="2" fill="#cc1100"/><rect x="12" y="2" width="2" height="2" fill="#141428"/><rect x="6" y="4" width="2" height="2" fill="#cc1100"/><rect x="8" y="4" width="2" height="2" fill="#cc1100"/><rect x="10" y="4" width="2" height="2" fill="#cc1100"/><rect x="12" y="4" width="2" height="2" fill="#cc1100"/><rect x="14" y="4" width="2" height="2" fill="#cc1100"/><rect x="16" y="4" width="2" height="2" fill="#cc1100"/><rect x="4" y="6" width="2" height="2" fill="#cc1100"/><rect x="6" y="6" width="2" height="2" fill="#cc1100"/><rect x="8" y="6" width="2" height="2" fill="#cc1100"/><rect x="10" y="6" width="2" height="2" fill="#cc1100"/><rect x="12" y="6" width="2" height="2" fill="#cc1100"/><rect x="14" y="6" width="2" height="2" fill="#cc1100"/><rect x="16" y="6" width="2" height="2" fill="#cc1100"/><rect x="18" y="6" width="2" height="2" fill="#cc1100"/><rect x="6" y="8" width="2" height="2" fill="#f0ede3"/><rect x="8" y="8" width="2" height="2" fill="#f0ede3"/><rect x="10" y="8" width="2" height="2" fill="#141428"/><rect x="12" y="8" width="2" height="2" fill="#f0ede3"/><rect x="14" y="8" width="2" height="2" fill="#f0ede3"/><rect x="16" y="8" width="2" height="2" fill="#141428"/><rect x="18" y="8" width="2" height="2" fill="#f0ede3"/><rect x="20" y="8" width="2" height="2" fill="#f0ede3"/><rect x="4" y="10" width="2" height="2" fill="#f0ede3"/><rect x="6" y="10" width="2" height="2" fill="#f0ede3"/><rect x="8" y="10" width="2" height="2" fill="#f0ede3"/><rect x="10" y="10" width="2" height="2" fill="#f0ede3"/><rect x="12" y="10" width="2" height="2" fill="#f0ede3"/><rect x="14" y="10" width="2" height="2" fill="#f0ede3"/><rect x="16" y="10" width="2" height="2" fill="#f0ede3"/><rect x="18" y="10" width="2" height="2" fill="#f0ede3"/><rect x="20" y="10" width="2" height="2" fill="#f0ede3"/><rect x="22" y="10" width="2" height="2" fill="#f0ede3"/><rect x="4" y="12" width="2" height="2" fill="#f0ede3"/><rect x="6" y="12" width="2" height="2" fill="#f0ede3"/><rect x="8" y="12" width="2" height="2" fill="#f0ede3"/><rect x="10" y="12" width="2" height="2" fill="#f0ede3"/><rect x="12" y="12" width="2" height="2" fill="#141428"/><rect x="14" y="12" width="2" height="2" fill="#cc1100"/><rect x="16" y="12" width="2" height="2" fill="#f0ede3"/><rect x="18" y="12" width="2" height="2" fill="#f0ede3"/><rect x="20" y="12" width="2" height="2" fill="#f0ede3"/><rect x="22" y="12" width="2" height="2" fill="#f0ede3"/><rect x="4" y="14" width="2" height="2" fill="#f0ede3"/><rect x="6" y="14" width="2" height="2" fill="#f0ede3"/><rect x="8" y="14" width="2" height="2" fill="#f0ede3"/><rect x="10" y="14" width="2" height="2" fill="#f0ede3"/><rect x="12" y="14" width="2" height="2" fill="#f0ede3"/><rect x="14" y="14" width="2" height="2" fill="#f0ede3"/><rect x="16" y="14" width="2" height="2" fill="#f0ede3"/><rect x="18" y="14" width="2" height="2" fill="#f0ede3"/><rect x="20" y="14" width="2" height="2" fill="#f0ede3"/><rect x="22" y="14" width="2" height="2" fill="#f0ede3"/><rect x="4" y="16" width="2" height="2" fill="#ffc4d5"/><rect x="6" y="16" width="2" height="2" fill="#ffc4d5"/><rect x="8" y="16" width="2" height="2" fill="#ffc4d5"/><rect x="10" y="16" width="2" height="2" fill="#ffc4d5"/><rect x="12" y="16" width="2" height="2" fill="#ffc4d5"/><rect x="14" y="16" width="2" height="2" fill="#ffc4d5"/><rect x="16" y="16" width="2" height="2" fill="#ffc4d5"/><rect x="18" y="16" width="2" height="2" fill="#ffc4d5"/><rect x="20" y="16" width="2" height="2" fill="#ffc4d5"/><rect x="22" y="16" width="2" height="2" fill="#ffc4d5"/><rect x="2" y="18" width="2" height="2" fill="#ffc4d5"/><rect x="4" y="18" width="2" height="2" fill="#ffc4d5"/><rect x="6" y="18" width="2" height="2" fill="#ffc4d5"/><rect x="8" y="18" width="2" height="2" fill="#ffc4d5"/><rect x="10" y="18" width="2" height="2" fill="#ffc4d5"/><rect x="12" y="18" width="2" height="2" fill="#ffc4d5"/><rect x="14" y="18" width="2" height="2" fill="#ffc4d5"/><rect x="16" y="18" width="2" height="2" fill="#ffc4d5"/><rect x="18" y="18" width="2" height="2" fill="#ffc4d5"/><rect x="20" y="18" width="2" height="2" fill="#ffc4d5"/><rect x="22" y="18" width="2" height="2" fill="#ffc4d5"/><rect x="24" y="18" width="2" height="2" fill="#ffc4d5"/><rect x="0" y="20" width="2" height="2" fill="#ffc4d5"/><rect x="2" y="20" width="2" height="2" fill="#ffc4d5"/><rect x="4" y="20" width="2" height="2" fill="#ffc4d5"/><rect x="6" y="20" width="2" height="2" fill="#ffc4d5"/><rect x="8" y="20" width="2" height="2" fill="#ffc4d5"/><rect x="10" y="20" width="2" height="2" fill="#ffc4d5"/><rect x="12" y="20" width="2" height="2" fill="#ffc4d5"/><rect x="14" y="20" width="2" height="2" fill="#ffc4d5"/><rect x="16" y="20" width="2" height="2" fill="#ffc4d5"/><rect x="18" y="20" width="2" height="2" fill="#ffc4d5"/><rect x="20" y="20" width="2" height="2" fill="#ffc4d5"/><rect x="22" y="20" width="2" height="2" fill="#ffc4d5"/><rect x="24" y="20" width="2" height="2" fill="#ffc4d5"/><rect x="26" y="20" width="2" height="2" fill="#ffc4d5"/><rect x="0" y="22" width="2" height="2" fill="#ffc4d5"/><rect x="2" y="22" width="2" height="2" fill="#ffc4d5"/><rect x="4" y="22" width="2" height="2" fill="#ffc4d5"/><rect x="6" y="22" width="2" height="2" fill="#ffc4d5"/><rect x="8" y="22" width="2" height="2" fill="#141428"/><rect x="10" y="22" width="2" height="2" fill="#ffc4d5"/><rect x="12" y="22" width="2" height="2" fill="#ffc4d5"/><rect x="14" y="22" width="2" height="2" fill="#ffc4d5"/><rect x="16" y="22" width="2" height="2" fill="#ffc4d5"/><rect x="18" y="22" width="2" height="2" fill="#141428"/><rect x="20" y="22" width="2" height="2" fill="#ffc4d5"/><rect x="22" y="22" width="2" height="2" fill="#ffc4d5"/><rect x="24" y="22" width="2" height="2" fill="#ffc4d5"/><rect x="26" y="22" width="2" height="2" fill="#ffc4d5"/><rect x="0" y="24" width="2" height="2" fill="#ffc4d5"/><rect x="2" y="24" width="2" height="2" fill="#ffc4d5"/><rect x="4" y="24" width="2" height="2" fill="#ffc4d5"/><rect x="6" y="24" width="2" height="2" fill="#ffc4d5"/><rect x="8" y="24" width="2" height="2" fill="#ffc4d5"/><rect x="10" y="24" width="2" height="2" fill="#ffc4d5"/><rect x="12" y="24" width="2" height="2" fill="#cc1100"/><rect x="14" y="24" width="2" height="2" fill="#ffc4d5"/><rect x="16" y="24" width="2" height="2" fill="#ffc4d5"/><rect x="18" y="24" width="2" height="2" fill="#ffc4d5"/><rect x="20" y="24" width="2" height="2" fill="#ffc4d5"/><rect x="22" y="24" width="2" height="2" fill="#ffc4d5"/><rect x="24" y="24" width="2" height="2" fill="#ffc4d5"/><rect x="26" y="24" width="2" height="2" fill="#ffc4d5"/><rect x="0" y="26" width="2" height="2" fill="#ffc4d5"/><rect x="2" y="26" width="2" height="2" fill="#ffc4d5"/><rect x="4" y="26" width="2" height="2" fill="#ffc4d5"/><rect x="6" y="26" width="2" height="2" fill="#ffc4d5"/><rect x="8" y="26" width="2" height="2" fill="#ffc4d5"/><rect x="10" y="26" width="2" height="2" fill="#ffc4d5"/><rect x="12" y="26" width="2" height="2" fill="#ffc4d5"/><rect x="14" y="26" width="2" height="2" fill="#ffc4d5"/><rect x="16" y="26" width="2" height="2" fill="#ffc4d5"/><rect x="18" y="26" width="2" height="2" fill="#ffc4d5"/><rect x="20" y="26" width="2" height="2" fill="#ffc4d5"/><rect x="22" y="26" width="2" height="2" fill="#ffc4d5"/><rect x="24" y="26" width="2" height="2" fill="#ffc4d5"/><rect x="26" y="26" width="2" height="2" fill="#ffc4d5"/><rect x="2" y="28" width="2" height="2" fill="#ffc4d5"/><rect x="4" y="28" width="2" height="2" fill="#ffc4d5"/><rect x="6" y="28" width="2" height="2" fill="#ffc4d5"/><rect x="8" y="28" width="2" height="2" fill="#ffc4d5"/><rect x="10" y="28" width="2" height="2" fill="#ffc4d5"/><rect x="12" y="28" width="2" height="2" fill="#ffc4d5"/><rect x="14" y="28" width="2" height="2" fill="#ffc4d5"/><rect x="16" y="28" width="2" height="2" fill="#ffc4d5"/><rect x="18" y="28" width="2" height="2" fill="#ffc4d5"/><rect x="20" y="28" width="2" height="2" fill="#ffc4d5"/><rect x="22" y="28" width="2" height="2" fill="#ffc4d5"/><rect x="24" y="28" width="2" height="2" fill="#ffc4d5"/><rect x="6" y="30" width="2" height="2" fill="#ffc4d5"/><rect x="8" y="30" width="2" height="2" fill="#ffc4d5"/><rect x="10" y="30" width="2" height="2" fill="#ffc4d5"/><rect x="20" y="30" width="2" height="2" fill="#ffc4d5"/><rect x="22" y="30" width="2" height="2" fill="#ffc4d5"/><rect x="24" y="30" width="2" height="2" fill="#ffc4d5"/><rect x="6" y="32" width="2" height="2" fill="#ffc4d5"/><rect x="8" y="32" width="2" height="2" fill="#ffc4d5"/><rect x="10" y="32" width="2" height="2" fill="#ffc4d5"/><rect x="20" y="32" width="2" height="2" fill="#ffc4d5"/><rect x="22" y="32" width="2" height="2" fill="#ffc4d5"/><rect x="24" y="32" width="2" height="2" fill="#ffc4d5"/><rect x="4" y="34" width="2" height="2" fill="#ffc4d5"/><rect x="6" y="34" width="2" height="2" fill="#ffc4d5"/><rect x="8" y="34" width="2" height="2" fill="#ffc4d5"/><rect x="10" y="34" width="2" height="2" fill="#ffc4d5"/><rect x="18" y="34" width="2" height="2" fill="#ffc4d5"/><rect x="20" y="34" width="2" height="2" fill="#ffc4d5"/><rect x="22" y="34" width="2" height="2" fill="#ffc4d5"/><rect x="24" y="34" width="2" height="2" fill="#ffc4d5"/><rect x="4" y="36" width="2" height="2" fill="#141428"/><rect x="6" y="36" width="2" height="2" fill="#141428"/><rect x="8" y="36" width="2" height="2" fill="#141428"/><rect x="10" y="36" width="2" height="2" fill="#141428"/><rect x="18" y="36" width="2" height="2" fill="#141428"/><rect x="20" y="36" width="2" height="2" fill="#141428"/><rect x="22" y="36" width="2" height="2" fill="#141428"/><rect x="24" y="36" width="2" height="2" fill="#141428"/><rect x="44" y="2" width="2" height="2" fill="#cc1100"/><rect x="44" y="4" width="2" height="2" fill="#141428"/><rect x="38" y="6" width="2" height="2" fill="#cc1100"/><rect x="40" y="6" width="2" height="2" fill="#cc1100"/><rect x="42" y="6" width="2" height="2" fill="#cc1100"/><rect x="44" y="6" width="2" height="2" fill="#cc1100"/><rect x="46" y="6" width="2" height="2" fill="#cc1100"/><rect x="48" y="6" width="2" height="2" fill="#cc1100"/><rect x="36" y="8" width="2" height="2" fill="#cc1100"/><rect x="38" y="8" width="2" height="2" fill="#cc1100"/><rect x="40" y="8" width="2" height="2" fill="#cc1100"/><rect x="42" y="8" width="2" height="2" fill="#cc1100"/><rect x="44" y="8" width="2" height="2" fill="#cc1100"/><rect x="46" y="8" width="2" height="2" fill="#cc1100"/><rect x="48" y="8" width="2" height="2" fill="#cc1100"/><rect x="50" y="8" width="2" height="2" fill="#cc1100"/><rect x="38" y="10" width="2" height="2" fill="#f0ede3"/><rect x="40" y="10" width="2" height="2" fill="#f0ede3"/><rect x="42" y="10" width="2" height="2" fill="#141428"/><rect x="44" y="10" width="2" height="2" fill="#f0ede3"/><rect x="46" y="10" width="2" height="2" fill="#f0ede3"/><rect x="48" y="10" width="2" height="2" fill="#141428"/><rect x="50" y="10" width="2" height="2" fill="#f0ede3"/><rect x="52" y="10" width="2" height="2" fill="#f0ede3"/><rect x="36" y="12" width="2" height="2" fill="#f0ede3"/><rect x="38" y="12" width="2" height="2" fill="#f0ede3"/><rect x="40" y="12" width="2" height="2" fill="#f0ede3"/><rect x="42" y="12" width="2" height="2" fill="#f0ede3"/><rect x="44" y="12" width="2" height="2" fill="#f0ede3"/><rect x="46" y="12" width="2" height="2" fill="#f0ede3"/><rect x="48" y="12" width="2" height="2" fill="#f0ede3"/><rect x="50" y="12" width="2" height="2" fill="#f0ede3"/><rect x="52" y="12" width="2" height="2" fill="#f0ede3"/><rect x="54" y="12" width="2" height="2" fill="#f0ede3"/><rect x="36" y="14" width="2" height="2" fill="#f0ede3"/><rect x="38" y="14" width="2" height="2" fill="#f0ede3"/><rect x="40" y="14" width="2" height="2" fill="#f0ede3"/><rect x="42" y="14" width="2" height="2" fill="#f0ede3"/><rect x="44" y="14" width="2" height="2" fill="#141428"/><rect x="46" y="14" width="2" height="2" fill="#cc1100"/><rect x="48" y="14" width="2" height="2" fill="#f0ede3"/><rect x="50" y="14" width="2" height="2" fill="#f0ede3"/><rect x="52" y="14" width="2" height="2" fill="#f0ede3"/><rect x="54" y="14" width="2" height="2" fill="#f0ede3"/><rect x="36" y="16" width="2" height="2" fill="#f0ede3"/><rect x="38" y="16" width="2" height="2" fill="#f0ede3"/><rect x="40" y="16" width="2" height="2" fill="#f0ede3"/><rect x="42" y="16" width="2" height="2" fill="#f0ede3"/><rect x="44" y="16" width="2" height="2" fill="#f0ede3"/><rect x="46" y="16" width="2" height="2" fill="#f0ede3"/><rect x="48" y="16" width="2" height="2" fill="#f0ede3"/><rect x="50" y="16" width="2" height="2" fill="#f0ede3"/><rect x="52" y="16" width="2" height="2" fill="#f0ede3"/><rect x="54" y="16" width="2" height="2" fill="#f0ede3"/><rect x="36" y="18" width="2" height="2" fill="#ffc4d5"/><rect x="38" y="18" width="2" height="2" fill="#ffc4d5"/><rect x="40" y="18" width="2" height="2" fill="#ffc4d5"/><rect x="42" y="18" width="2" height="2" fill="#ffc4d5"/><rect x="44" y="18" width="2" height="2" fill="#ffc4d5"/><rect x="46" y="18" width="2" height="2" fill="#ffc4d5"/><rect x="48" y="18" width="2" height="2" fill="#ffc4d5"/><rect x="50" y="18" width="2" height="2" fill="#ffc4d5"/><rect x="52" y="18" width="2" height="2" fill="#ffc4d5"/><rect x="54" y="18" width="2" height="2" fill="#ffc4d5"/><rect x="34" y="20" width="2" height="2" fill="#ffc4d5"/><rect x="36" y="20" width="2" height="2" fill="#ffc4d5"/><rect x="38" y="20" width="2" height="2" fill="#ffc4d5"/><rect x="40" y="20" width="2" height="2" fill="#ffc4d5"/><rect x="42" y="20" width="2" height="2" fill="#ffc4d5"/><rect x="44" y="20" width="2" height="2" fill="#ffc4d5"/><rect x="46" y="20" width="2" height="2" fill="#ffc4d5"/><rect x="48" y="20" width="2" height="2" fill="#ffc4d5"/><rect x="50" y="20" width="2" height="2" fill="#ffc4d5"/><rect x="52" y="20" width="2" height="2" fill="#ffc4d5"/><rect x="54" y="20" width="2" height="2" fill="#ffc4d5"/><rect x="56" y="20" width="2" height="2" fill="#ffc4d5"/><rect x="32" y="22" width="2" height="2" fill="#ffc4d5"/><rect x="34" y="22" width="2" height="2" fill="#ffc4d5"/><rect x="36" y="22" width="2" height="2" fill="#ffc4d5"/><rect x="38" y="22" width="2" height="2" fill="#ffc4d5"/><rect x="40" y="22" width="2" height="2" fill="#ffc4d5"/><rect x="42" y="22" width="2" height="2" fill="#ffc4d5"/><rect x="44" y="22" width="2" height="2" fill="#ffc4d5"/><rect x="46" y="22" width="2" height="2" fill="#ffc4d5"/><rect x="48" y="22" width="2" height="2" fill="#ffc4d5"/><rect x="50" y="22" width="2" height="2" fill="#ffc4d5"/><rect x="52" y="22" width="2" height="2" fill="#ffc4d5"/><rect x="54" y="22" width="2" height="2" fill="#ffc4d5"/><rect x="56" y="22" width="2" height="2" fill="#ffc4d5"/><rect x="58" y="22" width="2" height="2" fill="#ffc4d5"/><rect x="32" y="24" width="2" height="2" fill="#ffc4d5"/><rect x="34" y="24" width="2" height="2" fill="#ffc4d5"/><rect x="36" y="24" width="2" height="2" fill="#ffc4d5"/><rect x="38" y="24" width="2" height="2" fill="#ffc4d5"/><rect x="40" y="24" width="2" height="2" fill="#141428"/><rect x="42" y="24" width="2" height="2" fill="#ffc4d5"/><rect x="44" y="24" width="2" height="2" fill="#ffc4d5"/><rect x="46" y="24" width="2" height="2" fill="#ffc4d5"/><rect x="48" y="24" width="2" height="2" fill="#ffc4d5"/><rect x="50" y="24" width="2" height="2" fill="#141428"/><rect x="52" y="24" width="2" height="2" fill="#ffc4d5"/><rect x="54" y="24" width="2" height="2" fill="#ffc4d5"/><rect x="56" y="24" width="2" height="2" fill="#ffc4d5"/><rect x="58" y="24" width="2" height="2" fill="#ffc4d5"/><rect x="32" y="26" width="2" height="2" fill="#ffc4d5"/><rect x="34" y="26" width="2" height="2" fill="#ffc4d5"/><rect x="36" y="26" width="2" height="2" fill="#ffc4d5"/><rect x="38" y="26" width="2" height="2" fill="#ffc4d5"/><rect x="40" y="26" width="2" height="2" fill="#ffc4d5"/><rect x="42" y="26" width="2" height="2" fill="#ffc4d5"/><rect x="44" y="26" width="2" height="2" fill="#cc1100"/><rect x="46" y="26" width="2" height="2" fill="#ffc4d5"/><rect x="48" y="26" width="2" height="2" fill="#ffc4d5"/><rect x="50" y="26" width="2" height="2" fill="#ffc4d5"/><rect x="52" y="26" width="2" height="2" fill="#ffc4d5"/><rect x="54" y="26" width="2" height="2" fill="#ffc4d5"/><rect x="56" y="26" width="2" height="2" fill="#ffc4d5"/><rect x="58" y="26" width="2" height="2" fill="#ffc4d5"/><rect x="32" y="28" width="2" height="2" fill="#ffc4d5"/><rect x="34" y="28" width="2" height="2" fill="#ffc4d5"/><rect x="36" y="28" width="2" height="2" fill="#ffc4d5"/><rect x="38" y="28" width="2" height="2" fill="#ffc4d5"/><rect x="40" y="28" width="2" height="2" fill="#ffc4d5"/><rect x="42" y="28" width="2" height="2" fill="#ffc4d5"/><rect x="44" y="28" width="2" height="2" fill="#ffc4d5"/><rect x="46" y="28" width="2" height="2" fill="#ffc4d5"/><rect x="48" y="28" width="2" height="2" fill="#ffc4d5"/><rect x="50" y="28" width="2" height="2" fill="#ffc4d5"/><rect x="52" y="28" width="2" height="2" fill="#ffc4d5"/><rect x="54" y="28" width="2" height="2" fill="#ffc4d5"/><rect x="56" y="28" width="2" height="2" fill="#ffc4d5"/><rect x="58" y="28" width="2" height="2" fill="#ffc4d5"/><rect x="34" y="30" width="2" height="2" fill="#ffc4d5"/><rect x="36" y="30" width="2" height="2" fill="#ffc4d5"/><rect x="38" y="30" width="2" height="2" fill="#ffc4d5"/><rect x="40" y="30" width="2" height="2" fill="#ffc4d5"/><rect x="42" y="30" width="2" height="2" fill="#ffc4d5"/><rect x="44" y="30" width="2" height="2" fill="#ffc4d5"/><rect x="46" y="30" width="2" height="2" fill="#ffc4d5"/><rect x="48" y="30" width="2" height="2" fill="#ffc4d5"/><rect x="50" y="30" width="2" height="2" fill="#ffc4d5"/><rect x="52" y="30" width="2" height="2" fill="#ffc4d5"/><rect x="54" y="30" width="2" height="2" fill="#ffc4d5"/><rect x="56" y="30" width="2" height="2" fill="#ffc4d5"/><rect x="38" y="32" width="2" height="2" fill="#ffc4d5"/><rect x="40" y="32" width="2" height="2" fill="#ffc4d5"/><rect x="42" y="32" width="2" height="2" fill="#ffc4d5"/><rect x="52" y="32" width="2" height="2" fill="#ffc4d5"/><rect x="54" y="32" width="2" height="2" fill="#ffc4d5"/><rect x="56" y="32" width="2" height="2" fill="#ffc4d5"/><rect x="38" y="34" width="2" height="2" fill="#ffc4d5"/><rect x="40" y="34" width="2" height="2" fill="#ffc4d5"/><rect x="42" y="34" width="2" height="2" fill="#ffc4d5"/><rect x="52" y="34" width="2" height="2" fill="#ffc4d5"/><rect x="54" y="34" width="2" height="2" fill="#ffc4d5"/><rect x="56" y="34" width="2" height="2" fill="#ffc4d5"/><rect x="36" y="36" width="2" height="2" fill="#ffc4d5"/><rect x="38" y="36" width="2" height="2" fill="#ffc4d5"/><rect x="40" y="36" width="2" height="2" fill="#ffc4d5"/><rect x="42" y="36" width="2" height="2" fill="#ffc4d5"/><rect x="50" y="36" width="2" height="2" fill="#ffc4d5"/><rect x="52" y="36" width="2" height="2" fill="#ffc4d5"/><rect x="54" y="36" width="2" height="2" fill="#ffc4d5"/><rect x="56" y="36" width="2" height="2" fill="#ffc4d5"/></svg>